# xmcd
#
# Track frame offsets:
#	150
#	23984
#	51420
#	76902
#	113051
#	165005
#	187892
#	206074
#	245305
#	274536
#
# Disc length: 4305 seconds
#
# Revision: 0
# Processed by: cddbd v1.5.2PL0 Copyright (c) Steve Scherf et al.
# Submitted via: EZCDAudioConverter 8.0.7.1
#
DISCID=7610cf0a
DTITLE=Lackfi János - Milyenek MÉG a magyarok?
DYEAR=2018
DGENRE=Hangoskönyv
TTITLE0=Füled bokáig
TTITLE1=A kínaiak a golyóikkal számolnak
TTITLE2=Szadista bölcsődalok
TTITLE3=Hogyan szállítsunk anyóst?
TTITLE4=Magyar nyelvleckék haladóknak
TTITLE5=Homéros és Focivébé
TTITLE6=Úszni a betonban
TTITLE7=Kúl ez a plész
TTITLE8=Kuviubi pörivel
TTITLE9=Magyar nyelv és nyomdafesték
EXTD=
EXTT0=
EXTT1=
EXTT2=
EXTT3=
EXTT4=
EXTT5=
EXTT6=
EXTT7=
EXTT8=
EXTT9=
PLAYORDER=
